<?xml version="1.0" encoding="utf-8"?>
<svg version="1.1" xmlns:xlink="http://www.w3.org/1999/xlink" width="12px" height="12px" viewBox="120 180.5  12 12" xmlns="http://www.w3.org/2000/svg">
  <path d="M 126 180.5  C 129.36 180.5  132 183.14  132 186.5  C 132 189.86  129.36 192.5  126 192.5  C 122.64 192.5  120 189.86  120 186.5  C 120 183.14  122.64 180.5  126 180.5  Z " fill-rule="nonzero" fill="#ffffff" stroke="none" />
  <path d="M 126 181  C 129.08 181  131.5 183.42  131.5 186.5  C 131.5 189.58  129.08 192  126 192  C 122.92 192  120.5 189.58  120.5 186.5  C 120.5 183.42  122.92 181  126 181  Z " stroke-width="1" stroke="#aaaaaa" fill="none" />
  <path d="M 126 189.5  C 124.32 189.5  123 188.18  123 186.5  C 123 184.82  124.32 183.5  126 183.5  C 127.68 183.5  129 184.82  129 186.5  C 129 188.18  127.68 189.5  126 189.5  " fill-rule="nonzero" fill="#aaaaaa" stroke="none" />
</svg>