<?xml version="1.0" encoding="utf-8"?>
<svg version="1.1" xmlns:xlink="http://www.w3.org/1999/xlink" width="12px" height="12px" viewBox="253 180.5  12 12" xmlns="http://www.w3.org/2000/svg">
  <path d="M 259 180.5  C 262.36 180.5  265 183.14  265 186.5  C 265 189.86  262.36 192.5  259 192.5  C 255.64 192.5  253 189.86  253 186.5  C 253 183.14  255.64 180.5  259 180.5  Z " fill-rule="nonzero" fill="#ffffff" stroke="none" />
  <path d="M 259 181  C 262.08 181  264.5 183.42  264.5 186.5  C 264.5 189.58  262.08 192  259 192  C 255.92 192  253.5 189.58  253.5 186.5  C 253.5 183.42  255.92 181  259 181  Z " stroke-width="1" stroke="#aaaaaa" fill="none" />
  <path d="M 259 189.5  C 257.32 189.5  256 188.18  256 186.5  C 256 184.82  257.32 183.5  259 183.5  C 260.68 183.5  262 184.82  262 186.5  C 262 188.18  260.68 189.5  259 189.5  " fill-rule="nonzero" fill="#aaaaaa" stroke="none" />
</svg>